<svg width="350" height="163.7594912510774" viewBox="0 0 350 163.7594912510774" class="css-1j8o68f"><defs id="SvgjsDefs22791"/><g id="SvgjsG22792" featurekey="nRdZyp-0" transform="matrix(0.11903746594187731,0,0,0.11903746594187731,124.6666951010389,-38.2651761177372)" fill="#000000"><path xmlns="http://www.w3.org/2000/svg" d="M323.7,514.7c4.4-4.6,10.5-7.3,17-7.3h0c6.4,0,12.5,2.7,17.1,7.5c1.2,1.2,2.3,2.5,3.3,3.6c0.8,0.9,1.6,1.8,2.3,2.5  c1.8,1.9,3.7,3.7,5.5,5.4c3.8,3.4,7.9,6.6,12.1,9.3c3,2,6.2,3.8,9.4,5.4v-59.7H120.2l39.2,39.2L2.8,677.1l75.3,75.3l96.2-96.2  l41.3,41.3l-96.2,96.2l75.3,75.3l156.6-156.6l39.2,39.2V591.7l-0.2-0.1c-1.3-0.3-2.4-0.8-3-1.1c-0.7-0.2-1.5-0.5-2.3-0.8  c-1.3-0.5-2.6-1-3.8-1.4c-3.8-1.3-7.2-2.9-10.3-4.5c-6.2-3-12.3-6.6-18.1-10.6c-6-4.1-11.3-8.2-16-12.6c-2.3-2.1-4.7-4.4-7.3-7.2  l-0.8-0.9c-1.9-2-4.1-4.3-6.1-6.9c-4.7-6.3-5.4-12.3-5.1-16.2C317.7,523.9,320,518.7,323.7,514.7z"/><g xmlns="http://www.w3.org/2000/svg"><path d="M842.3,854c0,0-0.1,0-0.1,0c-11.9-0.3-57.8-1.4-68.9-1.7c-1.1-0.1-1.1-0.9-1.2-1.5c0-0.7-0.1-1.3-0.1-2   c-0.2-2.9-1.7-23.7-2.2-31.3c0-0.4,0-3.5-0.4-3.5c-2-0.1-34-2.4-36.4-2.6c-0.8-0.1-0.6-1-0.7-1.7c-0.5-7.4-2.4-34.5-2.5-35.2   c0-0.3-0.3-0.2-0.6-0.2c-12.2-0.9-24.2-1.7-36.3-2.6c-0.2,0-0.2-0.2-0.2-0.5c-0.3-3.6-2-28.1-2.5-35.1c0-0.5-0.1-0.9-0.1-1.4   c0,0-34.9-2.5-36-2.6c-0.2,0-0.9,0-1-0.1c-0.9-0.9-41.3-41.2-41.5-41.6c-5.5,2.2-10.4,3.8-16.1,5.1c-24.3,5.9-50.2,3.9-73.3-5.6   c-24.8-10.2-45.7-29-58.6-52.5c-13.7-25.1-17.7-54.6-11.7-82.5l0.1-0.2c2.8-11.7,6.9-22.8,13-33.3c15.5-26.8,41.5-46.9,71.4-55   c-1.5,11.7-5,23.1-10.5,33.6c-2.8,5.5-6.2,10.7-10,15.6c-1.5,2-3.1,3.9-4.8,5.7c-1.7,1.9-3.7,3.7-5.3,5.6   c-4.1,5.1-5.4,12.1-3.4,18.4c2.2,6.7,8,11.9,14.9,13.2c3.8,0.7,7.8,0.3,11.4-1.2c3.5-1.4,6.1-4,8.6-6.7c5.1-5.4,9.8-11.2,14.1-17.3   c14.4-20.8,22.9-45.6,24.5-70.8c14.5,1.1,29,4.9,42.2,11.1c27.2,12.9,48.8,36.2,59.7,64.2c10.5,27.1,10.5,57.7,0.2,84.8   c2.4,2.4,161.6,161.6,162.6,162.6c0.3,11.9,0.6,23.8,0.9,35.6C841.7,831.9,842,842.9,842.3,854z"/></g><path xmlns="http://www.w3.org/2000/svg" d="M419.8,583.7c0,0,0.1,0,0.1,0c0.1,0,0.1,0,0.1,0C420,583.7,419.9,583.7,419.8,583.7z"/><path xmlns="http://www.w3.org/2000/svg" d="M413.8,563.6c0.1,0,0.2,0,0.3,0.1C414,563.6,413.9,563.6,413.8,563.6z"/><g xmlns="http://www.w3.org/2000/svg"><path d="M566.1,451.6c0.3,26.1-7.3,51.9-21.6,73.7c-1.4,2.1-2.9,4.2-4.4,6.2c-1.3,1.9-2.8,4-4.4,5.6c-1.2,1.2-2.2,2.6-3.4,3.9   c-1.2,1.3-2.4,2.6-3.6,3.8c-1.8,1.8-3.9,3.6-6.5,3.7c-4.4,0.7-8.9-2.2-10.2-6.5c-2.6-6.2,3.7-10.9,7.2-14.9   c19.2-21.6,29.1-50.5,27.8-79.2c-1.2-27.4-12.5-53.8-31.6-73.5c-16.7-17.2-38.7-28.7-62.3-32.6c-23-3.8-46.9-0.4-67.9,9.8   c-23,11.2-41.9,30.4-52.6,53.6c-9,19.2-12.2,40.9-9.6,62H304c0-0.4-0.1-0.6-0.1-0.7c-0.3-3.2-0.5-6.5-0.6-9.7   c-0.2-6.5,0.1-13,0.9-19.5c3.1-26.5,14.4-51.7,32.1-71.7c16.2-18.2,37.3-31.8,60.7-38.7c22.3-6.6,46.2-7.2,68.8-1.8   c23.3,5.6,44.8,17.6,61.7,34.5c19.5,19.4,32.6,44.8,37,71.9c1,6.4,1.6,12.9,1.7,19.4C566.1,451.2,566.1,451.4,566.1,451.6z"/></g><path xmlns="http://www.w3.org/2000/svg" d="M435.1,584.5c-4.7,0-9.3-0.2-14-0.7c0,0,0,0,0,0c0,0,0,0-0.1,0c-1.3,0-2.7-0.4-4-0.5c-1.4-0.2-2.8-0.4-4.3-0.6  c-2.8-0.4-5.6-1.1-8.4-1.7c0,0,0,0,0,0c0,0-0.1,0-0.1,0c-2.7-0.7-5.5-1.3-8.2-2.2c-0.1,0-0.2-0.1-0.2-0.1c-0.1,0-0.2,0-0.2,0  c-0.5-0.1-1.1-0.3-1.6-0.5c-0.5,0-1.3-0.5-1.8-0.6c-0.7-0.2-1.4-0.5-2.1-0.8c-1.5-0.6-2.9-1.2-4.4-1.7c-3-1-5.9-2.4-8.7-3.8  c-5.7-2.8-11.1-6-16.3-9.5c-5.1-3.5-10-7.3-14.5-11.4c-2.3-2.1-4.5-4.3-6.6-6.5c-2-2.1-4.1-4.2-5.8-6.6c-1.5-2-2.5-4.3-2.3-6.8  c0.2-2.2,1.1-4.4,2.6-6c1.8-1.9,4.2-2.9,6.8-2.9c2.8,0,5.2,1.2,7.1,3.2c1.9,2,3.6,4.1,5.5,6.1c2,2.1,4.1,4.1,6.3,6.1  c4.3,3.9,9,7.5,13.9,10.6c18.5,11.9,40.5,18.3,62.5,18.1C435.2,571.9,435,578.2,435.1,584.5z"/></g><g id="SvgjsG22793" featurekey="Q4qmbg-0" transform="matrix(3.0009593215604657,0,0,3.0009593215604657,-2.9409409078524704,69.99520339219767)" fill="#000000"><path d="M9.68 5 l3.2 0 l0 15 l-3.2 0 l0 -6.16 l-5.5 0 l0 6.16 l-3.2 0 l0 -15 l3.2 0 l0 6.16 l5.5 0 l0 -6.16 z M19.707708333333333 12.42 c-1.22 0 -2.24 1.08 -2.24 2.66 c0 1.56 1.02 2.64 2.24 2.64 c1.24 0 2.26 -1.08 2.26 -2.64 c0 -1.58 -1.02 -2.66 -2.26 -2.66 z M19.707708333333333 9.98 c2.9 0 5.22 2.18 5.22 5.1 s-2.32 5.08 -5.22 5.08 c-2.88 0 -5.2 -2.16 -5.2 -5.08 s2.32 -5.1 5.2 -5.1 z M42.11541666666666 20 l-2.98 0 l0 -5.64 c0 -1.52 -0.42 -2.16 -1.54 -2.16 c-1.2 0 -1.9 0.64 -1.9 2.16 l0 5.64 l-2.98 0 l0 -5.64 c0 -1.52 -0.4 -2.16 -1.54 -2.16 c-1.2 0 -1.92 0.64 -1.92 2.16 l0 5.64 l-2.96 0 l0 -9.88 l2.96 0 l0 0.9 c0.7 -0.7 1.76 -1.04 2.7 -1.04 c1.4 0 2.3 0.52 2.94 1.34 c0.54 -0.66 1.7 -1.26 3.44 -1.34 c2.78 0 3.78 1.32 3.78 4.38 l0 5.64 z M53.763124999999995 15.08 l0 0.66 l-7.04 0 c0 1.16 1.18 1.98 2.16 1.98 c0.96 0 1.84 -0.38 2.3 -1.22 l1.98 1.82 c-0.8 1.08 -2.02 1.84 -4.28 1.84 c-3.24 0 -5.22 -2.16 -5.22 -5.08 s1.92 -5.1 5.04 -5.1 s5.06 2.14 5.06 5.1 z M46.783125 13.86 l3.88 0 c-0.16 -0.94 -0.84 -1.44 -1.96 -1.44 c-1.08 0 -1.74 0.58 -1.92 1.44 z M58.11083333333333 17.34 l6.28 0 l0 2.66 l-9.5 0 l0 -15 l3.22 0 l0 12.34 z M70.93854166666665 12.42 c-1.22 0 -2.24 1.08 -2.24 2.66 c0 1.56 1.02 2.64 2.24 2.64 c1.24 0 2.26 -1.08 2.26 -2.64 c0 -1.58 -1.02 -2.66 -2.26 -2.66 z M70.93854166666665 9.98 c2.9 0 5.22 2.18 5.22 5.1 s-2.32 5.08 -5.22 5.08 c-2.88 0 -5.2 -2.16 -5.2 -5.08 s2.32 -5.1 5.2 -5.1 z M84.06624999999998 10.12 l2.96 0 l0 9.58 c0 2.92 -2.14 5.28 -5.22 5.28 c-1.7 0 -2.98 -0.78 -4.1 -2.02 l2.1 -1.9 c0.62 0.92 1.18 1.48 2 1.48 c1.4 0 2.24 -1.54 2.24 -3.22 c-0.36 0.48 -1.42 0.82 -2.04 0.82 c-2.88 0 -5 -2.16 -5 -5.08 s2.12 -5.1 5 -5.1 c0.68 0 1.74 0.36 2.06 0.82 l0 -0.66 z M82.20624999999998 17.92 c1.34 0 2.26 -1.54 2.26 -2.86 c0 -1.34 -0.9 -2.86 -2.26 -2.86 c-1.22 0 -2.24 1.28 -2.24 2.86 c0 1.56 1.02 2.86 2.24 2.86 z M95.43395833333331 10.12 l2.96 0 l0 9.58 c0 2.92 -2.14 5.28 -5.22 5.28 c-1.7 0 -2.98 -0.78 -4.1 -2.02 l2.1 -1.9 c0.62 0.92 1.18 1.48 2 1.48 c1.4 0 2.24 -1.54 2.24 -3.22 c-0.36 0.48 -1.42 0.82 -2.04 0.82 c-2.88 0 -5 -2.16 -5 -5.08 s2.12 -5.1 5 -5.1 c0.68 0 1.74 0.36 2.06 0.82 l0 -0.66 z M93.57395833333331 17.92 c1.34 0 2.26 -1.54 2.26 -2.86 c0 -1.34 -0.9 -2.86 -2.26 -2.86 c-1.22 0 -2.24 1.28 -2.24 2.86 c0 1.56 1.02 2.86 2.24 2.86 z M109.92166666666662 15.08 l0 0.66 l-7.04 0 c0 1.16 1.18 1.98 2.16 1.98 c0.96 0 1.84 -0.38 2.3 -1.22 l1.98 1.82 c-0.8 1.08 -2.02 1.84 -4.28 1.84 c-3.24 0 -5.22 -2.16 -5.22 -5.08 s1.92 -5.1 5.04 -5.1 s5.06 2.14 5.06 5.1 z M102.94166666666663 13.86 l3.88 0 c-0.16 -0.94 -0.84 -1.44 -1.96 -1.44 c-1.08 0 -1.74 0.58 -1.92 1.44 z M117.60937499999996 10.26 l-0.4 2.22 c-0.74 -0.32 -0.88 -0.26 -1.22 -0.26 c-1.2 0 -1.9 0.64 -1.9 2.22 l0 5.56 l-2.96 0 l0 -9.88 l2.96 0 l0 0.88 c0.38 -0.68 1.42 -1.02 2.08 -1.02 c0.62 0 0.98 0.02 1.44 0.28 z"/></g><g id="SvgjsG22794" featurekey="sloganFeature-0" transform="matrix(0.5878852210325302,0,0,0.5878852210325302,50.41211523449644,151.90772416346368)" fill="#000000"><path d="M15.66 12.68 c0 1.38 -0.32 2.64 -0.94 3.78 c-0.64 1.14 -1.52 2.04 -2.64 2.7 c-1.14 0.66 -2.38 1 -3.78 1 c-1.02 0 -1.98 -0.2 -2.9 -0.58 c-0.9 -0.38 -1.68 -0.9 -2.32 -1.58 c-0.64 -0.64 -1.14 -1.42 -1.52 -2.34 c-0.36 -0.92 -0.56 -1.88 -0.56 -2.9 c0 -1.38 0.32 -2.64 0.96 -3.78 c0.62 -1.14 1.5 -2.06 2.64 -2.72 c1.12 -0.66 2.38 -0.98 3.76 -0.98 c1.02 0 1.98 0.18 2.9 0.56 c0.9 0.4 1.68 0.92 2.32 1.56 c0.64 0.68 1.16 1.46 1.52 2.36 c0.38 0.92 0.56 1.88 0.56 2.92 z M14.08 12.76 c0 -1.64 -0.6 -3.16 -1.6 -4.26 s-2.5 -1.8 -4.18 -1.8 c-1.08 0 -2.06 0.28 -2.94 0.8 c-0.88 0.56 -1.56 1.28 -2.04 2.18 c-0.48 0.92 -0.72 1.92 -0.72 3 c0 1.62 0.6 3.16 1.6 4.24 c1 1.1 2.5 1.8 4.16 1.8 c1.08 0 2.06 -0.28 2.94 -0.82 c0.9 -0.52 1.58 -1.26 2.06 -2.16 s0.72 -1.9 0.72 -2.98 z M31.288 20 l-1.86 0 l-4.32 -5.9 l-2.96 0 l0 5.9 l-1.54 0 l0 -14.58 l5.06 0 c1.72 0 3.1 0.48 3.9 1.28 s1.22 1.8 1.22 2.98 c0 2.46 -1.84 3.88 -4 4.16 z M22.148 6.859999999999999 l0 5.84 l3.38 0 c1.28 0 2.28 -0.36 2.86 -0.94 c0.56 -0.56 0.84 -1.26 0.84 -2.04 c0 -1.44 -0.88 -2.86 -3.66 -2.86 l-3.42 0 z M48.696000000000005 9.6 l-1.46 0.52 c-0.18 -0.52 -0.42 -1.06 -1 -1.72 c-0.28 -0.3 -0.6 -0.6 -0.96 -0.84 c-0.72 -0.5 -1.84 -0.86 -3.06 -0.86 c-1.1 0 -2.08 0.26 -2.96 0.82 s-1.56 1.28 -2.04 2.2 c-0.48 0.9 -0.72 1.88 -0.72 2.96 c0 1.64 0.56 3.16 1.52 4.26 c0.98 1.1 2.5 1.78 4.22 1.78 c1.3 0 2.54 -0.42 3.48 -1.14 s1.58 -1.88 1.66 -3.22 l-6.08 0 l0 -1.42 l7.72 0 l0 0.56 c0 1.84 -0.66 3.5 -1.8 4.7 c-1.16 1.2 -2.94 1.94 -5 1.94 c-2.18 0 -4.08 -0.8 -5.32 -2.12 s-1.98 -3.2 -1.98 -5.26 c0 -1.38 0.32 -2.66 0.96 -3.8 s1.52 -2.04 2.64 -2.7 s2.38 -0.98 3.74 -0.98 c1.72 0 3.24 0.48 4.28 1.32 c1.06 0.82 1.76 1.82 2.16 3 z M64.56400000000001 20 l-1.6 -3.72 l-7.94 0 l-1.6 3.72 l-1.56 0 l6.28 -14.58 l1.74 0 l6.3 14.58 l-1.62 0 z M62.384 14.879999999999999 l-3.4 -7.88 l-3.38 7.88 l6.78 0 z M80.572 5.42 l1.5 0 l0 14.58 l-1.66 0 l-8.7 -12.4 l0 12.4 l-1.52 0 l0 -14.58 l1.78 0 l8.6 12.26 l0 -12.26 z M88.05999999999999 20 l0 -14.58 l1.54 0 l0 14.58 l-1.54 0 z M99.60799999999999 20.14 c-1.38 0 -2.7 -0.52 -3.56 -1.28 c-0.9 -0.78 -1.48 -1.82 -1.6 -2.84 l1.44 -0.4 c0.16 0.86 0.6 1.58 1.32 2.18 c0.7 0.6 1.5 0.9 2.4 0.9 c0.84 0 1.62 -0.2 2.24 -0.64 c0.62 -0.42 1.02 -1.14 1.02 -2.02 c0 -1.02 -0.54 -1.68 -1.22 -2.08 c-0.48 -0.28 -0.9 -0.4 -1.38 -0.5 l-1.92 -0.38 c-0.4 -0.08 -0.82 -0.22 -1.28 -0.42 c-0.46 -0.22 -0.86 -0.48 -1.2 -0.82 c-0.68 -0.66 -1.02 -1.5 -1.02 -2.52 c0 -0.8 0.22 -1.52 0.66 -2.14 c0.44 -0.64 1 -1.1 1.7 -1.44 c0.7 -0.32 1.44 -0.48 2.26 -0.48 c3.14 0 4.52 1.94 4.82 3.5 l-1.4 0.44 c-0.24 -1.04 -1.18 -2.52 -3.44 -2.52 c-1.56 -0.04 -3.08 1.06 -3.06 2.58 c0 1.12 0.7 2.02 2.12 2.3 l1.84 0.36 c1.24 0.24 2.2 0.66 2.84 1.28 c0.44 0.4 0.76 0.86 0.96 1.34 c0.2 0.5 0.3 0.94 0.3 1.34 c0.02 2.56 -2.14 4.32 -4.84 4.26 z M109.43599999999998 20 l0 -14.58 l9.12 0 l0 1.42 l-7.58 0 l0 5.04 l6.94 0 l0 1.42 l-6.94 0 l0 5.28 l7.66 0 l0 1.42 l-9.2 0 z M135.75199999999998 12.4 l4.66 -6.98 l1.74 0 l-5.64 8.42 l0 6.16 l-1.56 0 l0 -6.14 l-5.64 -8.44 l1.84 0 z M160.22 12.68 c0 1.38 -0.32 2.64 -0.94 3.78 c-0.64 1.14 -1.52 2.04 -2.64 2.7 c-1.14 0.66 -2.38 1 -3.78 1 c-1.02 0 -1.98 -0.2 -2.9 -0.58 c-0.9 -0.38 -1.68 -0.9 -2.32 -1.58 c-0.64 -0.64 -1.14 -1.42 -1.52 -2.34 c-0.36 -0.92 -0.56 -1.88 -0.56 -2.9 c0 -1.38 0.32 -2.64 0.96 -3.78 c0.62 -1.14 1.5 -2.06 2.64 -2.72 c1.12 -0.66 2.38 -0.98 3.76 -0.98 c1.02 0 1.98 0.18 2.9 0.56 c0.9 0.4 1.68 0.92 2.32 1.56 c0.64 0.68 1.16 1.46 1.52 2.36 c0.38 0.92 0.56 1.88 0.56 2.92 z M158.64000000000001 12.76 c0 -1.64 -0.6 -3.16 -1.6 -4.26 s-2.5 -1.8 -4.18 -1.8 c-1.08 0 -2.06 0.28 -2.94 0.8 c-0.88 0.56 -1.56 1.28 -2.04 2.18 c-0.48 0.92 -0.72 1.92 -0.72 3 c0 1.62 0.6 3.16 1.6 4.24 c1 1.1 2.5 1.8 4.16 1.8 c1.08 0 2.06 -0.28 2.94 -0.82 c0.9 -0.52 1.58 -1.26 2.06 -2.16 s0.72 -1.9 0.72 -2.98 z M174.408 5.42 l1.54 0 l0 8.88 c0 1.84 -0.5 3.28 -1.44 4.3 c-0.96 1.02 -2.32 1.54 -4.06 1.54 c-1.72 0 -3.08 -0.52 -4.02 -1.56 c-0.96 -1.04 -1.44 -2.42 -1.44 -4.18 l0 -8.98 l1.52 0 l0 8.9 c0 1.54 0.44 2.72 1.16 3.38 c0.74 0.68 1.68 1 2.86 1 c1.24 0 2.2 -0.36 2.88 -1.12 c0.66 -0.76 1 -1.8 1 -3.18 l0 -8.98 z M192.396 20 l-1.86 0 l-4.32 -5.9 l-2.96 0 l0 5.9 l-1.54 0 l0 -14.58 l5.06 0 c1.72 0 3.1 0.48 3.9 1.28 s1.22 1.8 1.22 2.98 c0 2.46 -1.84 3.88 -4 4.16 z M183.256 6.859999999999999 l0 5.84 l3.38 0 c1.28 0 2.28 -0.36 2.86 -0.94 c0.56 -0.56 0.84 -1.26 0.84 -2.04 c0 -1.44 -0.88 -2.86 -3.66 -2.86 l-3.42 0 z M208.81199999999998 14.3 l-3.1 0 l0 5.7 l-1.54 0 l0 -14.58 l4.88 0 c3.56 -0.02 5.12 2.12 5.12 4.38 c0 1.26 -0.48 2.36 -1.34 3.18 c-0.88 0.82 -2.3 1.32 -4.02 1.32 z M208.932 6.859999999999999 l-3.22 0 l0 6.02 l3.14 0 c1.3 0 2.32 -0.38 2.9 -0.98 c0.58 -0.58 0.86 -1.3 0.86 -2.06 c0 -1.42 -0.82 -2.98 -3.68 -2.98 z M229.45999999999998 20 l-1.86 0 l-4.32 -5.9 l-2.96 0 l0 5.9 l-1.54 0 l0 -14.58 l5.06 0 c1.72 0 3.1 0.48 3.9 1.28 s1.22 1.8 1.22 2.98 c0 2.46 -1.84 3.88 -4 4.16 z M220.32 6.859999999999999 l0 5.84 l3.38 0 c1.28 0 2.28 -0.36 2.86 -0.94 c0.56 -0.56 0.84 -1.26 0.84 -2.04 c0 -1.44 -0.88 -2.86 -3.66 -2.86 l-3.42 0 z M247.748 12.68 c0 1.38 -0.32 2.64 -0.94 3.78 c-0.64 1.14 -1.52 2.04 -2.64 2.7 c-1.14 0.66 -2.38 1 -3.78 1 c-1.02 0 -1.98 -0.2 -2.9 -0.58 c-0.9 -0.38 -1.68 -0.9 -2.32 -1.58 c-0.64 -0.64 -1.14 -1.42 -1.52 -2.34 c-0.36 -0.92 -0.56 -1.88 -0.56 -2.9 c0 -1.38 0.32 -2.64 0.96 -3.78 c0.62 -1.14 1.5 -2.06 2.64 -2.72 c1.12 -0.66 2.38 -0.98 3.76 -0.98 c1.02 0 1.98 0.18 2.9 0.56 c0.9 0.4 1.68 0.92 2.32 1.56 c0.64 0.68 1.16 1.46 1.52 2.36 c0.38 0.92 0.56 1.88 0.56 2.92 z M246.168 12.76 c0 -1.64 -0.6 -3.16 -1.6 -4.26 s-2.5 -1.8 -4.18 -1.8 c-1.08 0 -2.06 0.28 -2.94 0.8 c-0.88 0.56 -1.56 1.28 -2.04 2.18 c-0.48 0.92 -0.72 1.92 -0.72 3 c0 1.62 0.6 3.16 1.6 4.24 c1 1.1 2.5 1.8 4.16 1.8 c1.08 0 2.06 -0.28 2.94 -0.82 c0.9 -0.52 1.58 -1.26 2.06 -2.16 s0.72 -1.9 0.72 -2.98 z M257.336 14.3 l-3.1 0 l0 5.7 l-1.54 0 l0 -14.58 l4.88 0 c3.56 -0.02 5.12 2.12 5.12 4.38 c0 1.26 -0.48 2.36 -1.34 3.18 c-0.88 0.82 -2.3 1.32 -4.02 1.32 z M257.45599999999996 6.859999999999999 l-3.22 0 l0 6.02 l3.14 0 c1.3 0 2.32 -0.38 2.9 -0.98 c0.58 -0.58 0.86 -1.3 0.86 -2.06 c0 -1.42 -0.82 -2.98 -3.68 -2.98 z M267.304 20 l0 -14.58 l9.12 0 l0 1.42 l-7.58 0 l0 5.04 l6.94 0 l0 1.42 l-6.94 0 l0 5.28 l7.66 0 l0 1.42 l-9.2 0 z M292.272 20 l-1.86 0 l-4.32 -5.9 l-2.96 0 l0 5.9 l-1.54 0 l0 -14.58 l5.06 0 c1.72 0 3.1 0.48 3.9 1.28 s1.22 1.8 1.22 2.98 c0 2.46 -1.84 3.88 -4 4.16 z M283.132 6.859999999999999 l0 5.84 l3.38 0 c1.28 0 2.28 -0.36 2.86 -0.94 c0.56 -0.56 0.84 -1.26 0.84 -2.04 c0 -1.44 -0.88 -2.86 -3.66 -2.86 l-3.42 0 z M301.7 6.859999999999999 l0 13.14 l-1.52 0 l0 -13.14 l-4.88 0 l0 -1.44 l11.28 0 l0 1.44 l-4.88 0 z M315.828 12.4 l4.66 -6.98 l1.74 0 l-5.64 8.42 l0 6.16 l-1.56 0 l0 -6.14 l-5.64 -8.44 l1.84 0 z M337.82399999999996 20.14 c-1.38 0 -2.7 -0.52 -3.56 -1.28 c-0.9 -0.78 -1.48 -1.82 -1.6 -2.84 l1.44 -0.4 c0.16 0.86 0.6 1.58 1.32 2.18 c0.7 0.6 1.5 0.9 2.4 0.9 c0.84 0 1.62 -0.2 2.24 -0.64 c0.62 -0.42 1.02 -1.14 1.02 -2.02 c0 -1.02 -0.54 -1.68 -1.22 -2.08 c-0.48 -0.28 -0.9 -0.4 -1.38 -0.5 l-1.92 -0.38 c-0.4 -0.08 -0.82 -0.22 -1.28 -0.42 c-0.46 -0.22 -0.86 -0.48 -1.2 -0.82 c-0.68 -0.66 -1.02 -1.5 -1.02 -2.52 c0 -0.8 0.22 -1.52 0.66 -2.14 c0.44 -0.64 1 -1.1 1.7 -1.44 c0.7 -0.32 1.44 -0.48 2.26 -0.48 c3.14 0 4.52 1.94 4.82 3.5 l-1.4 0.44 c-0.24 -1.04 -1.18 -2.52 -3.44 -2.52 c-1.56 -0.04 -3.08 1.06 -3.06 2.58 c0 1.12 0.7 2.02 2.12 2.3 l1.84 0.36 c1.24 0.24 2.2 0.66 2.84 1.28 c0.44 0.4 0.76 0.86 0.96 1.34 c0.2 0.5 0.3 0.94 0.3 1.34 c0.02 2.56 -2.14 4.32 -4.84 4.26 z M347.65199999999993 20 l0 -14.58 l9.12 0 l0 1.42 l-7.58 0 l0 5.04 l6.94 0 l0 1.42 l-6.94 0 l0 5.28 l7.66 0 l0 1.42 l-9.2 0 z M372.67999999999995 20 l-1.6 -3.72 l-7.94 0 l-1.6 3.72 l-1.56 0 l6.28 -14.58 l1.74 0 l6.3 14.58 l-1.62 0 z M370.49999999999994 14.879999999999999 l-3.4 -7.88 l-3.38 7.88 l6.78 0 z M388.98799999999994 20 l-1.86 0 l-4.32 -5.9 l-2.96 0 l0 5.9 l-1.54 0 l0 -14.58 l5.06 0 c1.72 0 3.1 0.48 3.9 1.28 s1.22 1.8 1.22 2.98 c0 2.46 -1.84 3.88 -4 4.16 z M379.84799999999996 6.859999999999999 l0 5.84 l3.38 0 c1.28 0 2.28 -0.36 2.86 -0.94 c0.56 -0.56 0.84 -1.26 0.84 -2.04 c0 -1.44 -0.88 -2.86 -3.66 -2.86 l-3.42 0 z M399.8959999999999 20.16 c-2 0 -3.86 -0.78 -5.16 -2.06 c-0.64 -0.64 -1.16 -1.42 -1.54 -2.34 c-0.38 -0.94 -0.58 -1.94 -0.58 -3 c0 -1.08 0.2 -2.1 0.6 -3.04 s0.92 -1.74 1.58 -2.38 c1.34 -1.3 3.2 -2.08 5.16 -2.08 c1.54 0 2.94 0.46 3.88 1.12 c0.48 0.32 0.9 0.7 1.28 1.12 c0.74 0.86 1.14 1.72 1.36 2.56 l-1.46 0.52 c-0.12 -0.48 -0.32 -1 -0.86 -1.76 c-0.28 -0.38 -0.58 -0.72 -0.94 -1.02 s-0.82 -0.56 -1.4 -0.76 c-0.58 -0.22 -1.2 -0.32 -1.9 -0.32 c-1.52 0 -2.98 0.62 -4 1.64 c-1.04 1.04 -1.7 2.58 -1.7 4.3 c0 1.14 0.24 2.18 0.74 3.1 c0.48 0.92 1.16 1.64 2.06 2.16 c0.86 0.52 1.84 0.78 2.92 0.78 c1.34 0 2.5 -0.46 3.2 -1.02 c0.36 -0.28 0.68 -0.6 0.96 -1 c0.28 -0.38 0.48 -0.72 0.62 -1 c0.12 -0.28 0.24 -0.58 0.34 -0.88 l1.46 0.52 c-0.22 0.78 -0.6 1.58 -1.34 2.48 c-0.36 0.44 -0.8 0.84 -1.26 1.18 c-0.96 0.68 -2.42 1.18 -4.02 1.18 z M421.02399999999994 20 l0 -6.68 l-8.3 0 l0 6.68 l-1.54 0 l0 -14.58 l1.54 0 l0 6.46 l8.3 0 l0 -6.46 l1.54 0 l0 14.58 l-1.54 0 z"/></g></svg>