<svg class="css-ze2te4 css-qd6ojx" viewBox="0 0 99.931952658206 65.17837452028385"><g transform="translate(-0.33330489896110777, -38.2651761177372) scale(0.11903746594187731)" class="css-17ivn46" fill="#000000"><path xmlns="http://www.w3.org/2000/svg" d="M323.7,514.7c4.4-4.6,10.5-7.3,17-7.3h0c6.4,0,12.5,2.7,17.1,7.5c1.2,1.2,2.3,2.5,3.3,3.6c0.8,0.9,1.6,1.8,2.3,2.5  c1.8,1.9,3.7,3.7,5.5,5.4c3.8,3.4,7.9,6.6,12.1,9.3c3,2,6.2,3.8,9.4,5.4v-59.7H120.2l39.2,39.2L2.8,677.1l75.3,75.3l96.2-96.2  l41.3,41.3l-96.2,96.2l75.3,75.3l156.6-156.6l39.2,39.2V591.7l-0.2-0.1c-1.3-0.3-2.4-0.8-3-1.1c-0.7-0.2-1.5-0.5-2.3-0.8  c-1.3-0.5-2.6-1-3.8-1.4c-3.8-1.3-7.2-2.9-10.3-4.5c-6.2-3-12.3-6.6-18.1-10.6c-6-4.1-11.3-8.2-16-12.6c-2.3-2.1-4.7-4.4-7.3-7.2  l-0.8-0.9c-1.9-2-4.1-4.3-6.1-6.9c-4.7-6.3-5.4-12.3-5.1-16.2C317.7,523.9,320,518.7,323.7,514.7z"/><g xmlns="http://www.w3.org/2000/svg"><path d="M842.3,854c0,0-0.1,0-0.1,0c-11.9-0.3-57.8-1.4-68.9-1.7c-1.1-0.1-1.1-0.9-1.2-1.5c0-0.7-0.1-1.3-0.1-2   c-0.2-2.9-1.7-23.7-2.2-31.3c0-0.4,0-3.5-0.4-3.5c-2-0.1-34-2.4-36.4-2.6c-0.8-0.1-0.6-1-0.7-1.7c-0.5-7.4-2.4-34.5-2.5-35.2   c0-0.3-0.3-0.2-0.6-0.2c-12.2-0.9-24.2-1.7-36.3-2.6c-0.2,0-0.2-0.2-0.2-0.5c-0.3-3.6-2-28.1-2.5-35.1c0-0.5-0.1-0.9-0.1-1.4   c0,0-34.9-2.5-36-2.6c-0.2,0-0.9,0-1-0.1c-0.9-0.9-41.3-41.2-41.5-41.6c-5.5,2.2-10.4,3.8-16.1,5.1c-24.3,5.9-50.2,3.9-73.3-5.6   c-24.8-10.2-45.7-29-58.6-52.5c-13.7-25.1-17.7-54.6-11.7-82.5l0.1-0.2c2.8-11.7,6.9-22.8,13-33.3c15.5-26.8,41.5-46.9,71.4-55   c-1.5,11.7-5,23.1-10.5,33.6c-2.8,5.5-6.2,10.7-10,15.6c-1.5,2-3.1,3.9-4.8,5.7c-1.7,1.9-3.7,3.7-5.3,5.6   c-4.1,5.1-5.4,12.1-3.4,18.4c2.2,6.7,8,11.9,14.9,13.2c3.8,0.7,7.8,0.3,11.4-1.2c3.5-1.4,6.1-4,8.6-6.7c5.1-5.4,9.8-11.2,14.1-17.3   c14.4-20.8,22.9-45.6,24.5-70.8c14.5,1.1,29,4.9,42.2,11.1c27.2,12.9,48.8,36.2,59.7,64.2c10.5,27.1,10.5,57.7,0.2,84.8   c2.4,2.4,161.6,161.6,162.6,162.6c0.3,11.9,0.6,23.8,0.9,35.6C841.7,831.9,842,842.9,842.3,854z"/></g><path xmlns="http://www.w3.org/2000/svg" d="M419.8,583.7c0,0,0.1,0,0.1,0c0.1,0,0.1,0,0.1,0C420,583.7,419.9,583.7,419.8,583.7z"/><path xmlns="http://www.w3.org/2000/svg" d="M413.8,563.6c0.1,0,0.2,0,0.3,0.1C414,563.6,413.9,563.6,413.8,563.6z"/><g xmlns="http://www.w3.org/2000/svg"><path d="M566.1,451.6c0.3,26.1-7.3,51.9-21.6,73.7c-1.4,2.1-2.9,4.2-4.4,6.2c-1.3,1.9-2.8,4-4.4,5.6c-1.2,1.2-2.2,2.6-3.4,3.9   c-1.2,1.3-2.4,2.6-3.6,3.8c-1.8,1.8-3.9,3.6-6.5,3.7c-4.4,0.7-8.9-2.2-10.2-6.5c-2.6-6.2,3.7-10.9,7.2-14.9   c19.2-21.6,29.1-50.5,27.8-79.2c-1.2-27.4-12.5-53.8-31.6-73.5c-16.7-17.2-38.7-28.7-62.3-32.6c-23-3.8-46.9-0.4-67.9,9.8   c-23,11.2-41.9,30.4-52.6,53.6c-9,19.2-12.2,40.9-9.6,62H304c0-0.4-0.1-0.6-0.1-0.7c-0.3-3.2-0.5-6.5-0.6-9.7   c-0.2-6.5,0.1-13,0.9-19.5c3.1-26.5,14.4-51.7,32.1-71.7c16.2-18.2,37.3-31.8,60.7-38.7c22.3-6.6,46.2-7.2,68.8-1.8   c23.3,5.6,44.8,17.6,61.7,34.5c19.5,19.4,32.6,44.8,37,71.9c1,6.4,1.6,12.9,1.7,19.4C566.1,451.2,566.1,451.4,566.1,451.6z"/></g><path xmlns="http://www.w3.org/2000/svg" d="M435.1,584.5c-4.7,0-9.3-0.2-14-0.7c0,0,0,0,0,0c0,0,0,0-0.1,0c-1.3,0-2.7-0.4-4-0.5c-1.4-0.2-2.8-0.4-4.3-0.6  c-2.8-0.4-5.6-1.1-8.4-1.7c0,0,0,0,0,0c0,0-0.1,0-0.1,0c-2.7-0.7-5.5-1.3-8.2-2.2c-0.1,0-0.2-0.1-0.2-0.1c-0.1,0-0.2,0-0.2,0  c-0.5-0.1-1.1-0.3-1.6-0.5c-0.5,0-1.3-0.5-1.8-0.6c-0.7-0.2-1.4-0.5-2.1-0.8c-1.5-0.6-2.9-1.2-4.4-1.7c-3-1-5.9-2.4-8.7-3.8  c-5.7-2.8-11.1-6-16.3-9.5c-5.1-3.5-10-7.3-14.5-11.4c-2.3-2.1-4.5-4.3-6.6-6.5c-2-2.1-4.1-4.2-5.8-6.6c-1.5-2-2.5-4.3-2.3-6.8  c0.2-2.2,1.1-4.4,2.6-6c1.8-1.9,4.2-2.9,6.8-2.9c2.8,0,5.2,1.2,7.1,3.2c1.9,2,3.6,4.1,5.5,6.1c2,2.1,4.1,4.1,6.3,6.1  c4.3,3.9,9,7.5,13.9,10.6c18.5,11.9,40.5,18.3,62.5,18.1C435.2,571.9,435,578.2,435.1,584.5z"/></g></svg>